<svg xmlns="http://www.w3.org/2000/svg" xmlns:xlink="http://www.w3.org/1999/xlink" width="2832" zoomAndPan="magnify" viewBox="0 0 2124 637.499986" height="850" preserveAspectRatio="xMidYMid meet" version="1.0"><defs><g/><clipPath id="f6f2f2e328"><path d="M 2070.054688 391.964844 L 2122.511719 391.964844 L 2122.511719 564.328125 L 2070.054688 564.328125 Z M 2070.054688 391.964844 " clip-rule="nonzero"/></clipPath><clipPath id="747bb8be96"><path d="M 0.0546875 0.964844 L 52.511719 0.964844 L 52.511719 173.328125 L 0.0546875 173.328125 Z M 0.0546875 0.964844 " clip-rule="nonzero"/></clipPath><clipPath id="db8526e694"><rect x="0" width="53" y="0" height="174"/></clipPath><clipPath id="cb1aea00b0"><path d="M 1849.746094 391.488281 L 2122.515625 391.488281 L 2122.515625 443.945312 L 1849.746094 443.945312 Z M 1849.746094 391.488281 " clip-rule="nonzero"/></clipPath><clipPath id="fda73e64dd"><path d="M 0.746094 0.488281 L 273.515625 0.488281 L 273.515625 52.945312 L 0.746094 52.945312 Z M 0.746094 0.488281 " clip-rule="nonzero"/></clipPath><clipPath id="3261e4b5ee"><rect x="0" width="274" y="0" height="53"/></clipPath><clipPath id="23b60900a4"><path d="M 1714 392 L 1887 392 L 1887 565 L 1714 565 Z M 1714 392 " clip-rule="nonzero"/></clipPath><clipPath id="8fd226b966"><path d="M 1751.816406 564.328125 L 1714.722656 527.234375 L 1849.851562 392.109375 L 1886.945312 429.203125 Z M 1751.816406 564.328125 " clip-rule="nonzero"/></clipPath><clipPath id="8b625a1bc2"><path d="M 0.527344 0.09375 L 172.953125 0.09375 L 172.953125 172.515625 L 0.527344 172.515625 Z M 0.527344 0.09375 " clip-rule="nonzero"/></clipPath><clipPath id="b876f9769d"><path d="M 37.816406 172.328125 L 0.722656 135.234375 L 135.851562 0.109375 L 172.945312 37.203125 Z M 37.816406 172.328125 " clip-rule="nonzero"/></clipPath><clipPath id="0df8fb1bb9"><rect x="0" width="173" y="0" height="173"/></clipPath><clipPath id="4edf46454a"><path d="M 1699.097656 152.152344 L 1751.554688 152.152344 L 1751.554688 564.328125 L 1699.097656 564.328125 Z M 1699.097656 152.152344 " clip-rule="nonzero"/></clipPath><clipPath id="1ee3729520"><path d="M 0.0976562 0.152344 L 52.554688 0.152344 L 52.554688 412.328125 L 0.0976562 412.328125 Z M 0.0976562 0.152344 " clip-rule="nonzero"/></clipPath><clipPath id="a5f943bf81"><rect x="0" width="53" y="0" height="413"/></clipPath><clipPath id="2d5d6f4672"><path d="M 1499 152 L 1736 152 L 1736 389 L 1499 389 Z M 1499 152 " clip-rule="nonzero"/></clipPath><clipPath id="9adff9a60f"><path d="M 1537.050781 388.015625 L 1499.957031 350.921875 L 1698.726562 152.152344 L 1735.820312 189.246094 Z M 1537.050781 388.015625 " clip-rule="nonzero"/></clipPath><clipPath id="01409d9a1f"><path d="M 0.894531 0.0390625 L 236.871094 0.0390625 L 236.871094 236.015625 L 0.894531 236.015625 Z M 0.894531 0.0390625 " clip-rule="nonzero"/></clipPath><clipPath id="28ab56da17"><path d="M 38.050781 236.015625 L 0.957031 198.921875 L 199.726562 0.152344 L 236.820312 37.246094 Z M 38.050781 236.015625 " clip-rule="nonzero"/></clipPath><clipPath id="53c853c141"><rect x="0" width="237" y="0" height="237"/></clipPath><clipPath id="03b9a8f810"><path d="M 1336 151 L 1574 151 L 1574 389 L 1336 389 Z M 1336 151 " clip-rule="nonzero"/></clipPath><clipPath id="9be7b8abac"><path d="M 1573.335938 350.921875 L 1536.242188 388.015625 L 1336.378906 188.152344 L 1373.472656 151.058594 Z M 1573.335938 350.921875 " clip-rule="nonzero"/></clipPath><clipPath id="99951e52e2"><path d="M 0.34375 0 L 237.519531 0 L 237.519531 237.015625 L 0.34375 237.015625 Z M 0.34375 0 " clip-rule="nonzero"/></clipPath><clipPath id="337b3db9fd"><path d="M 237.335938 199.921875 L 200.242188 237.015625 L 0.378906 37.152344 L 37.472656 0.0585938 Z M 237.335938 199.921875 " clip-rule="nonzero"/></clipPath><clipPath id="ca219d8970"><rect x="0" width="238" y="0" height="238"/></clipPath><clipPath id="77e56a5487"><path d="M 1320.644531 151.058594 L 1373.101562 151.058594 L 1373.101562 563.238281 L 1320.644531 563.238281 Z M 1320.644531 151.058594 " clip-rule="nonzero"/></clipPath><clipPath id="7125ecf9fc"><path d="M 0.644531 0.0585938 L 53.101562 0.0585938 L 53.101562 412.238281 L 0.644531 412.238281 Z M 0.644531 0.0585938 " clip-rule="nonzero"/></clipPath><clipPath id="77733c4968"><rect x="0" width="54" y="0" height="413"/></clipPath><clipPath id="822979f06c"><path d="M 1185 391 L 1358 391 L 1358 564 L 1185 564 Z M 1185 391 " clip-rule="nonzero"/></clipPath><clipPath id="3f4e4fc034"><path d="M 1357.363281 526.144531 L 1320.269531 563.238281 L 1185.144531 428.109375 L 1222.238281 391.015625 Z M 1357.363281 526.144531 " clip-rule="nonzero"/></clipPath><clipPath id="72232db85f"><path d="M 0.0234375 0 L 172.449219 0 L 172.449219 172.316406 L 0.0234375 172.316406 Z M 0.0234375 0 " clip-rule="nonzero"/></clipPath><clipPath id="a89bab482e"><path d="M 172.363281 135.144531 L 135.269531 172.238281 L 0.144531 37.109375 L 37.238281 0.015625 Z M 172.363281 135.144531 " clip-rule="nonzero"/></clipPath><clipPath id="4bfbdbf923"><rect x="0" width="173" y="0" height="173"/></clipPath><clipPath id="914ecd6267"><path d="M 949.707031 391.488281 L 1222.472656 391.488281 L 1222.472656 443.945312 L 949.707031 443.945312 Z M 949.707031 391.488281 " clip-rule="nonzero"/></clipPath><clipPath id="9ac700767b"><path d="M 0.707031 0.488281 L 273.472656 0.488281 L 273.472656 52.945312 L 0.707031 52.945312 Z M 0.707031 0.488281 " clip-rule="nonzero"/></clipPath><clipPath id="af65a0a279"><rect x="0" width="274" y="0" height="53"/></clipPath><clipPath id="b3dc033a25"><path d="M 949.828125 392.109375 L 1002.285156 392.109375 L 1002.285156 564.472656 L 949.828125 564.472656 Z M 949.828125 392.109375 " clip-rule="nonzero"/></clipPath><clipPath id="ab0fd71df7"><path d="M 0.828125 0.109375 L 53.285156 0.109375 L 53.285156 172.472656 L 0.828125 172.472656 Z M 0.828125 0.109375 " clip-rule="nonzero"/></clipPath><clipPath id="2a25e5115f"><rect x="0" width="54" y="0" height="173"/></clipPath><clipPath id="0b9c4b24aa"><path d="M 1508.742188 184.972656 L 1562.703125 184.972656 L 1562.703125 564.46875 L 1508.742188 564.46875 Z M 1508.742188 184.972656 " clip-rule="nonzero"/></clipPath><clipPath id="6b2afd11e6"><path d="M 0.742188 0.972656 L 54.703125 0.972656 L 54.703125 380.46875 L 0.742188 380.46875 Z M 0.742188 0.972656 " clip-rule="nonzero"/></clipPath><clipPath id="71ea6fa842"><rect x="0" width="55" y="0" height="381"/></clipPath><clipPath id="44d3f65ebe"><path d="M 1463.78125 492.527344 L 1607.667969 492.527344 L 1607.667969 636.417969 L 1463.78125 636.417969 Z M 1463.78125 492.527344 " clip-rule="nonzero"/></clipPath><clipPath id="d31c8af8e2"><path d="M 1535.726562 492.527344 C 1495.992188 492.527344 1463.78125 524.738281 1463.78125 564.472656 C 1463.78125 604.207031 1495.992188 636.417969 1535.726562 636.417969 C 1575.457031 636.417969 1607.667969 604.207031 1607.667969 564.472656 C 1607.667969 524.738281 1575.457031 492.527344 1535.726562 492.527344 Z M 1535.726562 492.527344 " clip-rule="nonzero"/></clipPath><clipPath id="d45d2f6627"><path d="M 0.78125 0.527344 L 144.667969 0.527344 L 144.667969 144.417969 L 0.78125 144.417969 Z M 0.78125 0.527344 " clip-rule="nonzero"/></clipPath><clipPath id="c277ced117"><path d="M 72.726562 0.527344 C 32.992188 0.527344 0.78125 32.738281 0.78125 72.472656 C 0.78125 112.207031 32.992188 144.417969 72.726562 144.417969 C 112.457031 144.417969 144.667969 112.207031 144.667969 72.472656 C 144.667969 32.738281 112.457031 0.527344 72.726562 0.527344 Z M 72.726562 0.527344 " clip-rule="nonzero"/></clipPath><clipPath id="fe94e5ff38"><rect x="0" width="145" y="0" height="145"/></clipPath><clipPath id="ae77ae87ff"><path d="M 1464.164062 79.117188 L 1608.050781 79.117188 L 1608.050781 223.003906 L 1464.164062 223.003906 Z M 1464.164062 79.117188 " clip-rule="nonzero"/></clipPath><clipPath id="309e7ab29a"><path d="M 1536.109375 79.117188 C 1496.375 79.117188 1464.164062 111.328125 1464.164062 151.058594 C 1464.164062 190.792969 1496.375 223.003906 1536.109375 223.003906 C 1575.839844 223.003906 1608.050781 190.792969 1608.050781 151.058594 C 1608.050781 111.328125 1575.839844 79.117188 1536.109375 79.117188 Z M 1536.109375 79.117188 " clip-rule="nonzero"/></clipPath><clipPath id="d7dbf08e5b"><path d="M 0.164062 0.117188 L 144.050781 0.117188 L 144.050781 144.003906 L 0.164062 144.003906 Z M 0.164062 0.117188 " clip-rule="nonzero"/></clipPath><clipPath id="53b133f37d"><path d="M 72.109375 0.117188 C 32.375 0.117188 0.164062 32.328125 0.164062 72.058594 C 0.164062 111.792969 32.375 144.003906 72.109375 144.003906 C 111.839844 144.003906 144.050781 111.792969 144.050781 72.058594 C 144.050781 32.328125 111.839844 0.117188 72.109375 0.117188 Z M 72.109375 0.117188 " clip-rule="nonzero"/></clipPath><clipPath id="7bb504f9b9"><rect x="0" width="145" y="0" height="145"/></clipPath><clipPath id="a31b8cc05c"><rect x="0" width="1167" y="0" height="334"/></clipPath></defs><g clip-path="url(#f6f2f2e328)"><g transform="matrix(1, 0, 0, 1, 2070, 391)"><g clip-path="url(#db8526e694)"><g clip-path="url(#747bb8be96)"><path fill="#0e5c4d" d="M 0.0546875 0.964844 L 52.511719 0.964844 L 52.511719 173.300781 L 0.0546875 173.300781 Z M 0.0546875 0.964844 " fill-opacity="1" fill-rule="nonzero"/></g></g></g></g><g clip-path="url(#cb1aea00b0)"><g transform="matrix(1, 0, 0, 1, 1849, 391)"><g clip-path="url(#3261e4b5ee)"><g clip-path="url(#fda73e64dd)"><path fill="#0e5c4d" d="M 0.746094 52.945312 L 0.746094 0.488281 L 273.492188 0.488281 L 273.492188 52.945312 Z M 0.746094 52.945312 " fill-opacity="1" fill-rule="nonzero"/></g></g></g></g><g clip-path="url(#23b60900a4)"><g clip-path="url(#8fd226b966)"><g transform="matrix(1, 0, 0, 1, 1714, 392)"><g clip-path="url(#0df8fb1bb9)"><g clip-path="url(#8b625a1bc2)"><g clip-path="url(#b876f9769d)"><path fill="#0e5c4d" d="M 37.816406 172.328125 L 0.722656 135.234375 L 135.910156 0.046875 L 173.007812 37.140625 Z M 37.816406 172.328125 " fill-opacity="1" fill-rule="nonzero"/></g></g></g></g></g></g><g clip-path="url(#4edf46454a)"><g transform="matrix(1, 0, 0, 1, 1699, 152)"><g clip-path="url(#a5f943bf81)"><g clip-path="url(#1ee3729520)"><path fill="#0e5c4d" d="M 0.0976562 0.152344 L 52.554688 0.152344 L 52.554688 412.242188 L 0.0976562 412.242188 Z M 0.0976562 0.152344 " fill-opacity="1" fill-rule="nonzero"/></g></g></g></g><g clip-path="url(#2d5d6f4672)"><g clip-path="url(#9adff9a60f)"><g transform="matrix(1, 0, 0, 1, 1499, 152)"><g clip-path="url(#53c853c141)"><g clip-path="url(#01409d9a1f)"><g clip-path="url(#28ab56da17)"><path fill="#0e5c4d" d="M 38.050781 236.015625 L 0.957031 198.921875 L 199.757812 0.121094 L 236.851562 37.214844 Z M 38.050781 236.015625 " fill-opacity="1" fill-rule="nonzero"/></g></g></g></g></g></g><g clip-path="url(#03b9a8f810)"><g clip-path="url(#9be7b8abac)"><g transform="matrix(1, 0, 0, 1, 1336, 151)"><g clip-path="url(#ca219d8970)"><g clip-path="url(#99951e52e2)"><g clip-path="url(#337b3db9fd)"><path fill="#0e5c4d" d="M 237.335938 199.921875 L 200.242188 237.015625 L 0.429688 37.199219 L 37.523438 0.105469 Z M 237.335938 199.921875 " fill-opacity="1" fill-rule="nonzero"/></g></g></g></g></g></g><g clip-path="url(#77e56a5487)"><g transform="matrix(1, 0, 0, 1, 1320, 151)"><g clip-path="url(#77733c4968)"><g clip-path="url(#7125ecf9fc)"><path fill="#0e5c4d" d="M 0.644531 0.0585938 L 53.101562 0.0585938 L 53.101562 412.148438 L 0.644531 412.148438 Z M 0.644531 0.0585938 " fill-opacity="1" fill-rule="nonzero"/></g></g></g></g><g clip-path="url(#822979f06c)"><g clip-path="url(#3f4e4fc034)"><g transform="matrix(1, 0, 0, 1, 1185, 391)"><g clip-path="url(#4bfbdbf923)"><g clip-path="url(#72232db85f)"><g clip-path="url(#a89bab482e)"><path fill="#0e5c4d" d="M 172.363281 135.144531 L 135.269531 172.238281 L 0.0820312 37.046875 L 37.175781 -0.046875 Z M 172.363281 135.144531 " fill-opacity="1" fill-rule="nonzero"/></g></g></g></g></g></g><g clip-path="url(#914ecd6267)"><g transform="matrix(1, 0, 0, 1, 949, 391)"><g clip-path="url(#af65a0a279)"><g clip-path="url(#9ac700767b)"><path fill="#0e5c4d" d="M 0.707031 52.945312 L 0.707031 0.488281 L 273.449219 0.488281 L 273.449219 52.945312 Z M 0.707031 52.945312 " fill-opacity="1" fill-rule="nonzero"/></g></g></g></g><g clip-path="url(#b3dc033a25)"><g transform="matrix(1, 0, 0, 1, 949, 392)"><g clip-path="url(#2a25e5115f)"><g clip-path="url(#ab0fd71df7)"><path fill="#0e5c4d" d="M 0.828125 0.109375 L 53.285156 0.109375 L 53.285156 172.441406 L 0.828125 172.441406 Z M 0.828125 0.109375 " fill-opacity="1" fill-rule="nonzero"/></g></g></g></g><g clip-path="url(#0b9c4b24aa)"><g transform="matrix(1, 0, 0, 1, 1508, 184)"><g clip-path="url(#71ea6fa842)"><g clip-path="url(#6b2afd11e6)"><path fill="#d4af37" d="M 0.742188 380.46875 L 0.742188 0.871094 L 54.703125 0.871094 L 54.703125 380.46875 Z M 0.742188 380.46875 " fill-opacity="1" fill-rule="nonzero"/></g></g></g></g><g clip-path="url(#44d3f65ebe)"><g clip-path="url(#d31c8af8e2)"><g transform="matrix(1, 0, 0, 1, 1463, 492)"><g clip-path="url(#fe94e5ff38)"><g clip-path="url(#d45d2f6627)"><g clip-path="url(#c277ced117)"><path fill="#d4af37" d="M 0.78125 0.527344 L 144.667969 0.527344 L 144.667969 144.417969 L 0.78125 144.417969 Z M 0.78125 0.527344 " fill-opacity="1" fill-rule="nonzero"/></g></g></g></g></g></g><g clip-path="url(#ae77ae87ff)"><g clip-path="url(#309e7ab29a)"><g transform="matrix(1, 0, 0, 1, 1464, 79)"><g clip-path="url(#7bb504f9b9)"><g clip-path="url(#d7dbf08e5b)"><g clip-path="url(#53b133f37d)"><path fill="#d4af37" d="M 0.164062 0.117188 L 144.050781 0.117188 L 144.050781 144.003906 L 0.164062 144.003906 Z M 0.164062 0.117188 " fill-opacity="1" fill-rule="nonzero"/></g></g></g></g></g></g><g transform="matrix(1, 0, 0, 1, 80, 76)"><g clip-path="url(#a31b8cc05c)"><g fill="#0e5c4d" fill-opacity="1"><g transform="translate(0.938003, 263.986972)"><g><path d="M 85.53125 3.28125 C 70.414062 3.28125 55.796875 1.234375 41.671875 -2.859375 C 27.554688 -6.960938 16.21875 -12.296875 7.65625 -18.859375 L 22.6875 -52.203125 C 30.882812 -46.179688 40.628906 -41.347656 51.921875 -37.703125 C 63.210938 -34.066406 74.507812 -32.25 85.8125 -32.25 C 98.382812 -32.25 107.675781 -34.113281 113.6875 -37.84375 C 119.695312 -41.582031 122.703125 -46.550781 122.703125 -52.75 C 122.703125 -57.300781 120.925781 -61.078125 117.375 -64.078125 C 113.820312 -67.085938 109.265625 -69.503906 103.703125 -71.328125 C 98.148438 -73.148438 90.640625 -75.15625 81.171875 -77.34375 C 66.585938 -80.800781 54.648438 -84.257812 45.359375 -87.71875 C 36.066406 -91.1875 28.097656 -96.742188 21.453125 -104.390625 C 14.804688 -112.046875 11.484375 -122.25 11.484375 -135 C 11.484375 -146.113281 14.488281 -156.175781 20.5 -165.1875 C 26.507812 -174.207031 35.570312 -181.359375 47.6875 -186.640625 C 59.800781 -191.929688 74.601562 -194.578125 92.09375 -194.578125 C 104.300781 -194.578125 116.234375 -193.117188 127.890625 -190.203125 C 139.554688 -187.285156 149.757812 -183.097656 158.5 -177.640625 L 144.84375 -144.015625 C 127.164062 -154.035156 109.492188 -159.046875 91.828125 -159.046875 C 79.429688 -159.046875 70.269531 -157.039062 64.34375 -153.03125 C 58.425781 -149.03125 55.46875 -143.75 55.46875 -137.1875 C 55.46875 -130.625 58.882812 -125.75 65.71875 -122.5625 C 72.550781 -119.375 82.984375 -116.234375 97.015625 -113.140625 C 111.585938 -109.679688 123.519531 -106.21875 132.8125 -102.75 C 142.101562 -99.289062 150.070312 -93.828125 156.71875 -86.359375 C 163.375 -78.890625 166.703125 -68.773438 166.703125 -56.015625 C 166.703125 -45.085938 163.648438 -35.113281 157.546875 -26.09375 C 151.441406 -17.082031 142.285156 -9.929688 130.078125 -4.640625 C 117.867188 0.640625 103.019531 3.28125 85.53125 3.28125 Z M 85.53125 3.28125 "/></g></g></g><g fill="#0e5c4d" fill-opacity="1"><g transform="translate(175.29205, 263.986972)"><g><path d="M 148.671875 -41 L 59.84375 -41 L 42.90625 0 L -2.453125 0 L 82.796875 -191.296875 L 126.53125 -191.296875 L 212.0625 0 L 165.609375 0 Z M 134.734375 -74.609375 L 104.390625 -147.84375 L 74.0625 -74.609375 Z M 134.734375 -74.609375 "/></g></g></g><g fill="#0e5c4d" fill-opacity="1"><g transform="translate(384.626246, 263.986972)"><g><path d="M 66.953125 -155.765625 L 66.953125 -105.21875 L 155.5 -105.21875 L 155.5 -69.6875 L 66.953125 -69.6875 L 66.953125 0 L 22.6875 0 L 22.6875 -191.296875 L 167.25 -191.296875 L 167.25 -155.765625 Z M 66.953125 -155.765625 "/></g></g></g><g fill="#0e5c4d" fill-opacity="1"><g transform="translate(559.253582, 263.986972)"><g><path d="M 311.8125 -191.296875 L 249.234375 0 L 201.6875 0 L 159.59375 -129.53125 L 116.140625 0 L 68.859375 0 L 6.015625 -191.296875 L 51.921875 -191.296875 L 95.109375 -56.84375 L 140.1875 -191.296875 L 181.1875 -191.296875 L 224.90625 -55.75 L 269.453125 -191.296875 Z M 311.8125 -191.296875 "/></g></g></g><g fill="#d4af37" fill-opacity="1"><g transform="translate(866.698768, 263.986972)"><g><path d="M 148.671875 -41 L 59.84375 -41 L 42.90625 0 L -2.453125 0 L 82.796875 -191.296875 L 126.53125 -191.296875 L 212.0625 0 L 165.609375 0 Z M 134.734375 -74.609375 L 104.390625 -147.84375 L 74.0625 -74.609375 Z M 134.734375 -74.609375 "/></g></g></g><g fill="#d4af37" fill-opacity="1"><g transform="translate(1076.032941, 263.986972)"><g><path d="M 22.6875 -191.296875 L 66.953125 -191.296875 L 66.953125 0 L 22.6875 0 Z M 22.6875 -191.296875 "/></g></g></g></g></g></svg>