<svg xmlns="http://www.w3.org/2000/svg" xmlns:xlink="http://www.w3.org/1999/xlink" width="1565" zoomAndPan="magnify" viewBox="0 0 1173.75 558" height="744" preserveAspectRatio="xMidYMid meet" version="1.0"><defs><clipPath id="d215e318a2"><path d="M 1120.148438 312.535156 L 1172.554688 312.535156 L 1172.554688 484.726562 L 1120.148438 484.726562 Z M 1120.148438 312.535156 " clip-rule="nonzero"/></clipPath><clipPath id="312920694e"><path d="M 0.148438 0.535156 L 52.554688 0.535156 L 52.554688 172.726562 L 0.148438 172.726562 Z M 0.148438 0.535156 " clip-rule="nonzero"/></clipPath><clipPath id="f56cc8d078"><rect x="0" width="53" y="0" height="173"/></clipPath><clipPath id="61a0ae985e"><path d="M 900.0625 312.058594 L 1172.554688 312.058594 L 1172.554688 364.464844 L 900.0625 364.464844 Z M 900.0625 312.058594 " clip-rule="nonzero"/></clipPath><clipPath id="615026dc69"><path d="M 0.0625 0.0585938 L 272.554688 0.0585938 L 272.554688 52.464844 L 0.0625 52.464844 Z M 0.0625 0.0585938 " clip-rule="nonzero"/></clipPath><clipPath id="12948a77d2"><rect x="0" width="273" y="0" height="53"/></clipPath><clipPath id="58fe3c0ab2"><path d="M 765 312 L 938 312 L 938 485 L 765 485 Z M 765 312 " clip-rule="nonzero"/></clipPath><clipPath id="ee85b4609e"><path d="M 802.230469 484.726562 L 765.171875 447.667969 L 900.164062 312.675781 L 937.222656 349.734375 Z M 802.230469 484.726562 " clip-rule="nonzero"/></clipPath><clipPath id="b35a285394"><path d="M 0.15625 0.640625 L 172.40625 0.640625 L 172.40625 172.890625 L 0.15625 172.890625 Z M 0.15625 0.640625 " clip-rule="nonzero"/></clipPath><clipPath id="844f7ff494"><path d="M 37.230469 172.726562 L 0.171875 135.667969 L 135.164062 0.675781 L 172.222656 37.734375 Z M 37.230469 172.726562 " clip-rule="nonzero"/></clipPath><clipPath id="683df545b1"><rect x="0" width="173" y="0" height="173"/></clipPath><clipPath id="c36ec41f4b"><path d="M 749.566406 72.964844 L 801.96875 72.964844 L 801.96875 484.726562 L 749.566406 484.726562 Z M 749.566406 72.964844 " clip-rule="nonzero"/></clipPath><clipPath id="b744116232"><path d="M 0.566406 0.964844 L 52.96875 0.964844 L 52.96875 412.726562 L 0.566406 412.726562 Z M 0.566406 0.964844 " clip-rule="nonzero"/></clipPath><clipPath id="bdf1f2df22"><rect x="0" width="53" y="0" height="413"/></clipPath><clipPath id="27513f3512"><path d="M 550 72 L 787 72 L 787 309 L 550 309 Z M 550 72 " clip-rule="nonzero"/></clipPath><clipPath id="07ecb5153e"><path d="M 587.679688 308.585938 L 550.625 271.53125 L 749.191406 72.960938 L 786.25 110.015625 Z M 587.679688 308.585938 " clip-rule="nonzero"/></clipPath><clipPath id="18192eac1c"><path d="M 0.5 0.828125 L 236.476562 0.828125 L 236.476562 236.804688 L 0.5 236.804688 Z M 0.5 0.828125 " clip-rule="nonzero"/></clipPath><clipPath id="6fbfd825a9"><path d="M 37.679688 236.585938 L 0.625 199.53125 L 199.191406 0.960938 L 236.25 38.015625 Z M 37.679688 236.585938 " clip-rule="nonzero"/></clipPath><clipPath id="7d879acf20"><rect x="0" width="237" y="0" height="237"/></clipPath><clipPath id="f7c1aa94d5"><path d="M 387 71 L 624 71 L 624 309 L 387 309 Z M 387 71 " clip-rule="nonzero"/></clipPath><clipPath id="ef5cc8e658"><path d="M 623.929688 271.53125 L 586.875 308.585938 L 387.210938 108.925781 L 424.269531 71.867188 Z M 623.929688 271.53125 " clip-rule="nonzero"/></clipPath><clipPath id="467014cd9c"><path d="M 0.113281 0.632812 L 237 0.632812 L 237 237.804688 L 0.113281 237.804688 Z M 0.113281 0.632812 " clip-rule="nonzero"/></clipPath><clipPath id="ead54d383d"><path d="M 236.929688 200.53125 L 199.875 237.585938 L 0.210938 37.925781 L 37.269531 0.867188 Z M 236.929688 200.53125 " clip-rule="nonzero"/></clipPath><clipPath id="651f5f478e"><rect x="0" width="237" y="0" height="238"/></clipPath><clipPath id="e68c04991e"><path d="M 371.492188 71.871094 L 423.898438 71.871094 L 423.898438 483.632812 L 371.492188 483.632812 Z M 371.492188 71.871094 " clip-rule="nonzero"/></clipPath><clipPath id="15613a4a57"><path d="M 0.492188 0.871094 L 52.898438 0.871094 L 52.898438 412.632812 L 0.492188 412.632812 Z M 0.492188 0.871094 " clip-rule="nonzero"/></clipPath><clipPath id="90a8123f94"><rect x="0" width="53" y="0" height="413"/></clipPath><clipPath id="f547bf2429"><path d="M 236 311 L 409 311 L 409 484 L 236 484 Z M 236 311 " clip-rule="nonzero"/></clipPath><clipPath id="7371dfbd24"><path d="M 408.175781 446.578125 L 371.121094 483.632812 L 236.128906 348.640625 L 273.183594 311.585938 Z M 408.175781 446.578125 " clip-rule="nonzero"/></clipPath><clipPath id="4e38f4c874"><path d="M 0 0.441406 L 172.195312 0.441406 L 172.195312 172.691406 L 0 172.691406 Z M 0 0.441406 " clip-rule="nonzero"/></clipPath><clipPath id="50b67f0c0e"><path d="M 172.175781 135.578125 L 135.121094 172.632812 L 0.128906 37.640625 L 37.183594 0.585938 Z M 172.175781 135.578125 " clip-rule="nonzero"/></clipPath><clipPath id="138d42f535"><rect x="0" width="173" y="0" height="173"/></clipPath><clipPath id="338c714b21"><path d="M 0.925781 312.058594 L 273.421875 312.058594 L 273.421875 364.464844 L 0.925781 364.464844 Z M 0.925781 312.058594 " clip-rule="nonzero"/></clipPath><clipPath id="d591deb866"><path d="M 0.925781 0.0585938 L 273.421875 0.0585938 L 273.421875 52.464844 L 0.925781 52.464844 Z M 0.925781 0.0585938 " clip-rule="nonzero"/></clipPath><clipPath id="a3e83c7972"><rect x="0" width="274" y="0" height="53"/></clipPath><clipPath id="9576349602"><path d="M 1.046875 312.675781 L 53.453125 312.675781 L 53.453125 484.867188 L 1.046875 484.867188 Z M 1.046875 312.675781 " clip-rule="nonzero"/></clipPath><clipPath id="46a162d722"><path d="M 0.046875 0.675781 L 52.453125 0.675781 L 52.453125 172.867188 L 0.046875 172.867188 Z M 0.046875 0.675781 " clip-rule="nonzero"/></clipPath><clipPath id="eb80a276ac"><rect x="0" width="53" y="0" height="173"/></clipPath><clipPath id="47ec5821d2"><path d="M 559.402344 105.746094 L 613.304688 105.746094 L 613.304688 484.867188 L 559.402344 484.867188 Z M 559.402344 105.746094 " clip-rule="nonzero"/></clipPath><clipPath id="efd20a13b6"><path d="M 0.402344 0.746094 L 54.304688 0.746094 L 54.304688 379.867188 L 0.402344 379.867188 Z M 0.402344 0.746094 " clip-rule="nonzero"/></clipPath><clipPath id="76eb81ff72"><rect x="0" width="55" y="0" height="380"/></clipPath><clipPath id="302eb0fc83"><path d="M 514.484375 412.996094 L 658.226562 412.996094 L 658.226562 556.738281 L 514.484375 556.738281 Z M 514.484375 412.996094 " clip-rule="nonzero"/></clipPath><clipPath id="b1aa4a7450"><path d="M 586.355469 412.996094 C 546.664062 412.996094 514.484375 445.175781 514.484375 484.867188 C 514.484375 524.5625 546.664062 556.738281 586.355469 556.738281 C 626.050781 556.738281 658.226562 524.5625 658.226562 484.867188 C 658.226562 445.175781 626.050781 412.996094 586.355469 412.996094 Z M 586.355469 412.996094 " clip-rule="nonzero"/></clipPath><clipPath id="13040505e0"><path d="M 0.484375 0.996094 L 144.226562 0.996094 L 144.226562 144.738281 L 0.484375 144.738281 Z M 0.484375 0.996094 " clip-rule="nonzero"/></clipPath><clipPath id="33d9542c3e"><path d="M 72.355469 0.996094 C 32.664062 0.996094 0.484375 33.175781 0.484375 72.867188 C 0.484375 112.5625 32.664062 144.738281 72.355469 144.738281 C 112.050781 144.738281 144.226562 112.5625 144.226562 72.867188 C 144.226562 33.175781 112.050781 0.996094 72.355469 0.996094 Z M 72.355469 0.996094 " clip-rule="nonzero"/></clipPath><clipPath id="be637ae410"><rect x="0" width="145" y="0" height="145"/></clipPath><clipPath id="0264ec1fc9"><path d="M 514.867188 0 L 658.609375 0 L 658.609375 143.742188 L 514.867188 143.742188 Z M 514.867188 0 " clip-rule="nonzero"/></clipPath><clipPath id="67e1968471"><path d="M 586.738281 0 C 547.046875 0 514.867188 32.179688 514.867188 71.871094 C 514.867188 111.566406 547.046875 143.742188 586.738281 143.742188 C 626.433594 143.742188 658.609375 111.566406 658.609375 71.871094 C 658.609375 32.179688 626.433594 0 586.738281 0 Z M 586.738281 0 " clip-rule="nonzero"/></clipPath><clipPath id="059ec3ffd0"><path d="M 0.867188 0 L 144.609375 0 L 144.609375 143.742188 L 0.867188 143.742188 Z M 0.867188 0 " clip-rule="nonzero"/></clipPath><clipPath id="d6d2ab1067"><path d="M 72.738281 0 C 33.046875 0 0.867188 32.179688 0.867188 71.871094 C 0.867188 111.566406 33.046875 143.742188 72.738281 143.742188 C 112.433594 143.742188 144.609375 111.566406 144.609375 71.871094 C 144.609375 32.179688 112.433594 0 72.738281 0 Z M 72.738281 0 " clip-rule="nonzero"/></clipPath><clipPath id="301491b768"><rect x="0" width="145" y="0" height="144"/></clipPath></defs><g clip-path="url(#d215e318a2)"><g transform="matrix(1, 0, 0, 1, 1120, 312)"><g clip-path="url(#f56cc8d078)"><g clip-path="url(#312920694e)"><path fill="#0e5c4d" d="M 0.148438 0.535156 L 52.554688 0.535156 L 52.554688 172.695312 L 0.148438 172.695312 Z M 0.148438 0.535156 " fill-opacity="1" fill-rule="nonzero"/></g></g></g></g><g clip-path="url(#61a0ae985e)"><g transform="matrix(1, 0, 0, 1, 900, 312)"><g clip-path="url(#12948a77d2)"><g clip-path="url(#615026dc69)"><path fill="#0e5c4d" d="M 0.0625 52.464844 L 0.0625 0.0585938 L 272.535156 0.0585938 L 272.535156 52.464844 Z M 0.0625 52.464844 " fill-opacity="1" fill-rule="nonzero"/></g></g></g></g><g clip-path="url(#58fe3c0ab2)"><g clip-path="url(#ee85b4609e)"><g transform="matrix(1, 0, 0, 1, 765, 312)"><g clip-path="url(#683df545b1)"><g clip-path="url(#b35a285394)"><g clip-path="url(#844f7ff494)"><path fill="#0e5c4d" d="M 37.230469 172.726562 L 0.171875 135.667969 L 135.226562 0.613281 L 172.285156 37.671875 Z M 37.230469 172.726562 " fill-opacity="1" fill-rule="nonzero"/></g></g></g></g></g></g><g clip-path="url(#c36ec41f4b)"><g transform="matrix(1, 0, 0, 1, 749, 72)"><g clip-path="url(#bdf1f2df22)"><g clip-path="url(#b744116232)"><path fill="#0e5c4d" d="M 0.566406 0.964844 L 52.96875 0.964844 L 52.96875 412.636719 L 0.566406 412.636719 Z M 0.566406 0.964844 " fill-opacity="1" fill-rule="nonzero"/></g></g></g></g><g clip-path="url(#27513f3512)"><g clip-path="url(#07ecb5153e)"><g transform="matrix(1, 0, 0, 1, 550, 72)"><g clip-path="url(#7d879acf20)"><g clip-path="url(#18192eac1c)"><g clip-path="url(#6fbfd825a9)"><path fill="#0e5c4d" d="M 37.679688 236.585938 L 0.625 199.53125 L 199.222656 0.929688 L 236.28125 37.988281 Z M 37.679688 236.585938 " fill-opacity="1" fill-rule="nonzero"/></g></g></g></g></g></g><g clip-path="url(#f7c1aa94d5)"><g clip-path="url(#ef5cc8e658)"><g transform="matrix(1, 0, 0, 1, 387, 71)"><g clip-path="url(#651f5f478e)"><g clip-path="url(#467014cd9c)"><g clip-path="url(#ead54d383d)"><path fill="#0e5c4d" d="M 236.929688 200.53125 L 199.875 237.585938 L 0.261719 37.972656 L 37.316406 0.917969 Z M 236.929688 200.53125 " fill-opacity="1" fill-rule="nonzero"/></g></g></g></g></g></g><g clip-path="url(#e68c04991e)"><g transform="matrix(1, 0, 0, 1, 371, 71)"><g clip-path="url(#90a8123f94)"><g clip-path="url(#15613a4a57)"><path fill="#0e5c4d" d="M 0.492188 0.871094 L 52.898438 0.871094 L 52.898438 412.546875 L 0.492188 412.546875 Z M 0.492188 0.871094 " fill-opacity="1" fill-rule="nonzero"/></g></g></g></g><g clip-path="url(#f547bf2429)"><g clip-path="url(#7371dfbd24)"><g transform="matrix(1, 0, 0, 1, 236, 311)"><g clip-path="url(#138d42f535)"><g clip-path="url(#4e38f4c874)"><g clip-path="url(#50b67f0c0e)"><path fill="#0e5c4d" d="M 172.175781 135.578125 L 135.121094 172.632812 L 0.0664062 37.578125 L 37.121094 0.523438 Z M 172.175781 135.578125 " fill-opacity="1" fill-rule="nonzero"/></g></g></g></g></g></g><g clip-path="url(#338c714b21)"><g transform="matrix(1, 0, 0, 1, 0, 312)"><g clip-path="url(#a3e83c7972)"><g clip-path="url(#d591deb866)"><path fill="#0e5c4d" d="M 0.925781 52.464844 L 0.925781 0.0585938 L 273.398438 0.0585938 L 273.398438 52.464844 Z M 0.925781 52.464844 " fill-opacity="1" fill-rule="nonzero"/></g></g></g></g><g clip-path="url(#9576349602)"><g transform="matrix(1, 0, 0, 1, 1, 312)"><g clip-path="url(#eb80a276ac)"><g clip-path="url(#46a162d722)"><path fill="#0e5c4d" d="M 0.046875 0.675781 L 52.453125 0.675781 L 52.453125 172.839844 L 0.046875 172.839844 Z M 0.046875 0.675781 " fill-opacity="1" fill-rule="nonzero"/></g></g></g></g><g clip-path="url(#47ec5821d2)"><g transform="matrix(1, 0, 0, 1, 559, 105)"><g clip-path="url(#76eb81ff72)"><g clip-path="url(#efd20a13b6)"><path fill="#d4af37" d="M 0.402344 379.867188 L 0.402344 0.648438 L 54.304688 0.648438 L 54.304688 379.867188 Z M 0.402344 379.867188 " fill-opacity="1" fill-rule="nonzero"/></g></g></g></g><g clip-path="url(#302eb0fc83)"><g clip-path="url(#b1aa4a7450)"><g transform="matrix(1, 0, 0, 1, 514, 412)"><g clip-path="url(#be637ae410)"><g clip-path="url(#13040505e0)"><g clip-path="url(#33d9542c3e)"><path fill="#d4af37" d="M 0.484375 0.996094 L 144.226562 0.996094 L 144.226562 144.738281 L 0.484375 144.738281 Z M 0.484375 0.996094 " fill-opacity="1" fill-rule="nonzero"/></g></g></g></g></g></g><g clip-path="url(#0264ec1fc9)"><g clip-path="url(#67e1968471)"><g transform="matrix(1, 0, 0, 1, 514, -0.000000000000018347)"><g clip-path="url(#301491b768)"><g clip-path="url(#059ec3ffd0)"><g clip-path="url(#d6d2ab1067)"><path fill="#d4af37" d="M 0.867188 0 L 144.609375 0 L 144.609375 143.742188 L 0.867188 143.742188 Z M 0.867188 0 " fill-opacity="1" fill-rule="nonzero"/></g></g></g></g></g></g></svg>