<svg xmlns="http://www.w3.org/2000/svg" xmlns:xlink="http://www.w3.org/1999/xlink" width="1780" zoomAndPan="magnify" viewBox="0 0 1335 489.749987" height="653" preserveAspectRatio="xMidYMid meet" version="1.0"><defs><g/></defs><g fill="#0e5c4d" fill-opacity="1"><g transform="translate(80.97517, 342.231743)"><g><path d="M 86.109375 3.296875 C 70.878906 3.296875 56.15625 1.234375 41.9375 -2.890625 C 27.726562 -7.015625 16.316406 -12.378906 7.703125 -18.984375 L 22.828125 -52.546875 C 31.085938 -46.492188 40.898438 -41.632812 52.265625 -37.96875 C 63.640625 -34.300781 75.007812 -32.46875 86.375 -32.46875 C 99.03125 -32.46875 108.382812 -34.34375 114.4375 -38.09375 C 120.488281 -41.851562 123.515625 -46.851562 123.515625 -53.09375 C 123.515625 -57.675781 121.722656 -61.476562 118.140625 -64.5 C 114.566406 -67.53125 109.984375 -69.960938 104.390625 -71.796875 C 98.796875 -73.628906 91.234375 -75.644531 81.703125 -77.84375 C 67.035156 -81.332031 55.023438 -84.816406 45.671875 -88.296875 C 36.316406 -91.785156 28.289062 -97.378906 21.59375 -105.078125 C 14.894531 -112.785156 11.546875 -123.054688 11.546875 -135.890625 C 11.546875 -147.078125 14.570312 -157.207031 20.625 -166.28125 C 26.675781 -175.363281 35.800781 -182.5625 48 -187.875 C 60.195312 -193.195312 75.097656 -195.859375 92.703125 -195.859375 C 104.992188 -195.859375 117.003906 -194.390625 128.734375 -191.453125 C 140.472656 -188.523438 150.742188 -184.3125 159.546875 -178.8125 L 145.796875 -144.96875 C 128.003906 -155.0625 110.21875 -160.109375 92.4375 -160.109375 C 79.957031 -160.109375 70.738281 -158.085938 64.78125 -154.046875 C 58.820312 -150.015625 55.84375 -144.695312 55.84375 -138.09375 C 55.84375 -131.488281 59.28125 -126.582031 66.15625 -123.375 C 73.03125 -120.164062 83.53125 -117.003906 97.65625 -113.890625 C 112.332031 -110.398438 124.34375 -106.910156 133.6875 -103.421875 C 143.039062 -99.941406 151.066406 -94.441406 157.765625 -86.921875 C 164.460938 -79.410156 167.8125 -69.234375 167.8125 -56.390625 C 167.8125 -45.390625 164.738281 -35.347656 158.59375 -26.265625 C 152.445312 -17.191406 143.226562 -9.992188 130.9375 -4.671875 C 118.65625 0.640625 103.710938 3.296875 86.109375 3.296875 Z M 86.109375 3.296875 "/></g></g></g><g fill="#0e5c4d" fill-opacity="1"><g transform="translate(256.480391, 342.231743)"><g><path d="M 149.65625 -41.265625 L 60.25 -41.265625 L 43.1875 0 L -2.46875 0 L 83.359375 -192.5625 L 127.375 -192.5625 L 213.46875 0 L 166.703125 0 Z M 135.625 -75.09375 L 105.078125 -148.828125 L 74.546875 -75.09375 Z M 135.625 -75.09375 "/></g></g></g><g fill="#0e5c4d" fill-opacity="1"><g transform="translate(467.196719, 342.231743)"><g><path d="M 67.390625 -156.796875 L 67.390625 -105.90625 L 156.53125 -105.90625 L 156.53125 -70.15625 L 67.390625 -70.15625 L 67.390625 0 L 22.828125 0 L 22.828125 -192.5625 L 168.359375 -192.5625 L 168.359375 -156.796875 Z M 67.390625 -156.796875 "/></g></g></g><g fill="#0e5c4d" fill-opacity="1"><g transform="translate(642.977035, 342.231743)"><g><path d="M 313.875 -192.5625 L 250.890625 0 L 203.015625 0 L 160.65625 -130.390625 L 116.921875 0 L 69.328125 0 L 6.046875 -192.5625 L 52.265625 -192.5625 L 95.734375 -57.21875 L 141.125 -192.5625 L 182.390625 -192.5625 L 226.40625 -56.125 L 271.25 -192.5625 Z M 313.875 -192.5625 "/></g></g></g><g fill="#d4af37" fill-opacity="1"><g transform="translate(952.452131, 342.231743)"><g><path d="M 149.65625 -41.265625 L 60.25 -41.265625 L 43.1875 0 L -2.46875 0 L 83.359375 -192.5625 L 127.375 -192.5625 L 213.46875 0 L 166.703125 0 Z M 135.625 -75.09375 L 105.078125 -148.828125 L 74.546875 -75.09375 Z M 135.625 -75.09375 "/></g></g></g><g fill="#d4af37" fill-opacity="1"><g transform="translate(1163.168436, 342.231743)"><g><path d="M 22.828125 -192.5625 L 67.390625 -192.5625 L 67.390625 0 L 22.828125 0 Z M 22.828125 -192.5625 "/></g></g></g></svg>