<svg xmlns="http://www.w3.org/2000/svg" xmlns:xlink="http://www.w3.org/1999/xlink" width="1780" zoomAndPan="magnify" viewBox="0 0 1335 967.499967" height="1290" preserveAspectRatio="xMidYMid meet" version="1.0"><defs><g/><clipPath id="15e5d03c8b"><path d="M 1201.285156 312.933594 L 1253.757812 312.933594 L 1253.757812 485.34375 L 1201.285156 485.34375 Z M 1201.285156 312.933594 " clip-rule="nonzero"/></clipPath><clipPath id="971e664f1f"><path d="M 0.285156 0.933594 L 52.757812 0.933594 L 52.757812 173.34375 L 0.285156 173.34375 Z M 0.285156 0.933594 " clip-rule="nonzero"/></clipPath><clipPath id="1cd737e3aa"><rect x="0" width="53" y="0" height="174"/></clipPath><clipPath id="f200864a68"><path d="M 980.917969 312.453125 L 1253.757812 312.453125 L 1253.757812 364.925781 L 980.917969 364.925781 Z M 980.917969 312.453125 " clip-rule="nonzero"/></clipPath><clipPath id="f5ccbde2f0"><path d="M 0.917969 0.453125 L 273.757812 0.453125 L 273.757812 52.925781 L 0.917969 52.925781 Z M 0.917969 0.453125 " clip-rule="nonzero"/></clipPath><clipPath id="8d9f6f56ae"><rect x="0" width="274" y="0" height="53"/></clipPath><clipPath id="eb8685b921"><path d="M 845 313 L 1019 313 L 1019 486 L 845 486 Z M 845 313 " clip-rule="nonzero"/></clipPath><clipPath id="5f61092c60"><path d="M 882.960938 485.34375 L 845.855469 448.238281 L 981.019531 313.074219 L 1018.125 350.179688 Z M 882.960938 485.34375 " clip-rule="nonzero"/></clipPath><clipPath id="433cc0b4c5"><path d="M 0.667969 0.0390625 L 173.140625 0.0390625 L 173.140625 172.507812 L 0.667969 172.507812 Z M 0.667969 0.0390625 " clip-rule="nonzero"/></clipPath><clipPath id="701c271145"><path d="M 37.960938 172.34375 L 0.855469 135.238281 L 136.019531 0.0742188 L 173.125 37.179688 Z M 37.960938 172.34375 " clip-rule="nonzero"/></clipPath><clipPath id="ba615f6c9a"><rect x="0" width="174" y="0" height="173"/></clipPath><clipPath id="d97672972f"><path d="M 830.226562 73.054688 L 882.699219 73.054688 L 882.699219 485.34375 L 830.226562 485.34375 Z M 830.226562 73.054688 " clip-rule="nonzero"/></clipPath><clipPath id="dc25ec2625"><path d="M 0.226562 0.0546875 L 52.699219 0.0546875 L 52.699219 412.34375 L 0.226562 412.34375 Z M 0.226562 0.0546875 " clip-rule="nonzero"/></clipPath><clipPath id="69ecd2c4e2"><rect x="0" width="53" y="0" height="413"/></clipPath><clipPath id="c4fc09654e"><path d="M 631 73 L 867 73 L 867 309 L 631 309 Z M 631 73 " clip-rule="nonzero"/></clipPath><clipPath id="6c2efc62bf"><path d="M 668.136719 308.980469 L 631.035156 271.875 L 829.855469 73.054688 L 866.960938 110.15625 Z M 668.136719 308.980469 " clip-rule="nonzero"/></clipPath><clipPath id="94d8dcdf07"><path d="M 0 0 L 236 0 L 236 236 L 0 236 Z M 0 0 " clip-rule="nonzero"/></clipPath><clipPath id="1553ae7c34"><path d="M 37.136719 235.980469 L 0.0351562 198.875 L 198.855469 0.0546875 L 235.960938 37.15625 Z M 37.136719 235.980469 " clip-rule="nonzero"/></clipPath><clipPath id="11cbe48ee6"><rect x="0" width="236" y="0" height="236"/></clipPath><clipPath id="a3fdeb813e"><path d="M 467 71 L 705 71 L 705 309 L 467 309 Z M 467 71 " clip-rule="nonzero"/></clipPath><clipPath id="0c2f97a3eb"><path d="M 704.433594 271.875 L 667.332031 308.980469 L 467.414062 109.0625 L 504.519531 71.960938 Z M 704.433594 271.875 " clip-rule="nonzero"/></clipPath><clipPath id="2a18803fa5"><path d="M 0.382812 1 L 237.621094 1 L 237.621094 238 L 0.382812 238 Z M 0.382812 1 " clip-rule="nonzero"/></clipPath><clipPath id="0cc8c23978"><path d="M 237.433594 200.875 L 200.332031 237.980469 L 0.414062 38.0625 L 37.519531 0.960938 Z M 237.433594 200.875 " clip-rule="nonzero"/></clipPath><clipPath id="ea424f0dcb"><rect x="0" width="238" y="0" height="238"/></clipPath><clipPath id="131cf0b81b"><path d="M 451.671875 71.960938 L 504.148438 71.960938 L 504.148438 484.25 L 451.671875 484.25 Z M 451.671875 71.960938 " clip-rule="nonzero"/></clipPath><clipPath id="b5f5fe0b93"><path d="M 0.671875 0.960938 L 53.148438 0.960938 L 53.148438 413.25 L 0.671875 413.25 Z M 0.671875 0.960938 " clip-rule="nonzero"/></clipPath><clipPath id="4b9a8c0cdc"><rect x="0" width="54" y="0" height="414"/></clipPath><clipPath id="60f416bb88"><path d="M 316 311 L 489 311 L 489 485 L 316 485 Z M 316 311 " clip-rule="nonzero"/></clipPath><clipPath id="655f432554"><path d="M 488.40625 447.144531 L 451.300781 484.25 L 316.136719 349.085938 L 353.242188 311.980469 Z M 488.40625 447.144531 " clip-rule="nonzero"/></clipPath><clipPath id="2c36e2b78e"><path d="M 0.0234375 0.839844 L 172.492188 0.839844 L 172.492188 173.308594 L 0.0234375 173.308594 Z M 0.0234375 0.839844 " clip-rule="nonzero"/></clipPath><clipPath id="6c12b6be21"><path d="M 172.40625 136.144531 L 135.300781 173.25 L 0.136719 38.085938 L 37.242188 0.980469 Z M 172.40625 136.144531 " clip-rule="nonzero"/></clipPath><clipPath id="d5979c80f8"><rect x="0" width="173" y="0" height="174"/></clipPath><clipPath id="020b0564ea"><path d="M 80.636719 312.453125 L 353.476562 312.453125 L 353.476562 364.925781 L 80.636719 364.925781 Z M 80.636719 312.453125 " clip-rule="nonzero"/></clipPath><clipPath id="797cb26473"><path d="M 0.636719 0.453125 L 273.476562 0.453125 L 273.476562 52.925781 L 0.636719 52.925781 Z M 0.636719 0.453125 " clip-rule="nonzero"/></clipPath><clipPath id="8e29a9619c"><rect x="0" width="274" y="0" height="53"/></clipPath><clipPath id="4171de7d9e"><path d="M 80.757812 313.074219 L 133.230469 313.074219 L 133.230469 485.484375 L 80.757812 485.484375 Z M 80.757812 313.074219 " clip-rule="nonzero"/></clipPath><clipPath id="19ed58c7cc"><path d="M 0.757812 0.0742188 L 53.230469 0.0742188 L 53.230469 172.484375 L 0.757812 172.484375 Z M 0.757812 0.0742188 " clip-rule="nonzero"/></clipPath><clipPath id="87d70cb65f"><rect x="0" width="54" y="0" height="173"/></clipPath><clipPath id="07d2dc112e"><path d="M 639.824219 105.882812 L 693.796875 105.882812 L 693.796875 485.484375 L 639.824219 485.484375 Z M 639.824219 105.882812 " clip-rule="nonzero"/></clipPath><clipPath id="00e0252e92"><path d="M 0.824219 0.882812 L 54.796875 0.882812 L 54.796875 380.484375 L 0.824219 380.484375 Z M 0.824219 0.882812 " clip-rule="nonzero"/></clipPath><clipPath id="3609619146"><rect x="0" width="55" y="0" height="381"/></clipPath><clipPath id="41ce504182"><path d="M 594.851562 413.523438 L 738.773438 413.523438 L 738.773438 557.449219 L 594.851562 557.449219 Z M 594.851562 413.523438 " clip-rule="nonzero"/></clipPath><clipPath id="996fc62c66"><path d="M 666.8125 413.523438 C 627.070312 413.523438 594.851562 445.742188 594.851562 485.484375 C 594.851562 525.230469 627.070312 557.449219 666.8125 557.449219 C 706.554688 557.449219 738.773438 525.230469 738.773438 485.484375 C 738.773438 445.742188 706.554688 413.523438 666.8125 413.523438 Z M 666.8125 413.523438 " clip-rule="nonzero"/></clipPath><clipPath id="63ef17537c"><path d="M 0.851562 0.523438 L 144.773438 0.523438 L 144.773438 144.449219 L 0.851562 144.449219 Z M 0.851562 0.523438 " clip-rule="nonzero"/></clipPath><clipPath id="bb53d1bf45"><path d="M 72.8125 0.523438 C 33.070312 0.523438 0.851562 32.742188 0.851562 72.484375 C 0.851562 112.230469 33.070312 144.449219 72.8125 144.449219 C 112.554688 144.449219 144.773438 112.230469 144.773438 72.484375 C 144.773438 32.742188 112.554688 0.523438 72.8125 0.523438 Z M 72.8125 0.523438 " clip-rule="nonzero"/></clipPath><clipPath id="7fbe2d51e8"><rect x="0" width="145" y="0" height="145"/></clipPath><clipPath id="39c99057fc"><path d="M 595.234375 0 L 739.15625 0 L 739.15625 143.925781 L 595.234375 143.925781 Z M 595.234375 0 " clip-rule="nonzero"/></clipPath><clipPath id="c9655a6660"><path d="M 667.195312 0 C 627.453125 0 595.234375 32.21875 595.234375 71.960938 C 595.234375 111.707031 627.453125 143.925781 667.195312 143.925781 C 706.9375 143.925781 739.15625 111.707031 739.15625 71.960938 C 739.15625 32.21875 706.9375 0 667.195312 0 Z M 667.195312 0 " clip-rule="nonzero"/></clipPath><clipPath id="46ec4065d5"><path d="M 0.234375 0 L 144.15625 0 L 144.15625 143.925781 L 0.234375 143.925781 Z M 0.234375 0 " clip-rule="nonzero"/></clipPath><clipPath id="be7649db92"><path d="M 72.195312 0 C 32.453125 0 0.234375 32.21875 0.234375 71.960938 C 0.234375 111.707031 32.453125 143.925781 72.195312 143.925781 C 111.9375 143.925781 144.15625 111.707031 144.15625 71.960938 C 144.15625 32.21875 111.9375 0 72.195312 0 Z M 72.195312 0 " clip-rule="nonzero"/></clipPath><clipPath id="6b3ddf32f7"><rect x="0" width="145" y="0" height="144"/></clipPath></defs><g clip-path="url(#15e5d03c8b)"><g transform="matrix(1, 0, 0, 1, 1201, 312)"><g clip-path="url(#1cd737e3aa)"><g clip-path="url(#971e664f1f)"><path fill="#0e5c4d" d="M 0.285156 0.933594 L 52.757812 0.933594 L 52.757812 173.3125 L 0.285156 173.3125 Z M 0.285156 0.933594 " fill-opacity="1" fill-rule="nonzero"/></g></g></g></g><g clip-path="url(#f200864a68)"><g transform="matrix(1, 0, 0, 1, 980, 312)"><g clip-path="url(#8d9f6f56ae)"><g clip-path="url(#f5ccbde2f0)"><path fill="#0e5c4d" d="M 0.917969 52.925781 L 0.917969 0.453125 L 273.738281 0.453125 L 273.738281 52.925781 Z M 0.917969 52.925781 " fill-opacity="1" fill-rule="nonzero"/></g></g></g></g><g clip-path="url(#eb8685b921)"><g clip-path="url(#5f61092c60)"><g transform="matrix(1, 0, 0, 1, 845, 313)"><g clip-path="url(#ba615f6c9a)"><g clip-path="url(#433cc0b4c5)"><g clip-path="url(#701c271145)"><path fill="#0e5c4d" d="M 37.960938 172.34375 L 0.855469 135.238281 L 136.082031 0.0117188 L 173.1875 37.117188 Z M 37.960938 172.34375 " fill-opacity="1" fill-rule="nonzero"/></g></g></g></g></g></g><g clip-path="url(#d97672972f)"><g transform="matrix(1, 0, 0, 1, 830, 73)"><g clip-path="url(#69ecd2c4e2)"><g clip-path="url(#dc25ec2625)"><path fill="#0e5c4d" d="M 0.226562 0.0546875 L 52.699219 0.0546875 L 52.699219 412.253906 L 0.226562 412.253906 Z M 0.226562 0.0546875 " fill-opacity="1" fill-rule="nonzero"/></g></g></g></g><g clip-path="url(#c4fc09654e)"><g clip-path="url(#6c2efc62bf)"><g transform="matrix(1, 0, 0, 1, 631, 73)"><g clip-path="url(#11cbe48ee6)"><g clip-path="url(#94d8dcdf07)"><g clip-path="url(#1553ae7c34)"><path fill="#0e5c4d" d="M 37.136719 235.980469 L 0.0351562 198.875 L 198.886719 0.0234375 L 235.992188 37.125 Z M 37.136719 235.980469 " fill-opacity="1" fill-rule="nonzero"/></g></g></g></g></g></g><g clip-path="url(#a3fdeb813e)"><g clip-path="url(#0c2f97a3eb)"><g transform="matrix(1, 0, 0, 1, 467, 71)"><g clip-path="url(#ea424f0dcb)"><g clip-path="url(#2a18803fa5)"><g clip-path="url(#0cc8c23978)"><path fill="#0e5c4d" d="M 237.433594 200.875 L 200.332031 237.980469 L 0.460938 38.113281 L 37.566406 1.007812 Z M 237.433594 200.875 " fill-opacity="1" fill-rule="nonzero"/></g></g></g></g></g></g><g clip-path="url(#131cf0b81b)"><g transform="matrix(1, 0, 0, 1, 451, 71)"><g clip-path="url(#4b9a8c0cdc)"><g clip-path="url(#b5f5fe0b93)"><path fill="#0e5c4d" d="M 0.671875 0.960938 L 53.148438 0.960938 L 53.148438 413.160156 L 0.671875 413.160156 Z M 0.671875 0.960938 " fill-opacity="1" fill-rule="nonzero"/></g></g></g></g><g clip-path="url(#60f416bb88)"><g clip-path="url(#655f432554)"><g transform="matrix(1, 0, 0, 1, 316, 311)"><g clip-path="url(#d5979c80f8)"><g clip-path="url(#2c36e2b78e)"><g clip-path="url(#6c12b6be21)"><path fill="#0e5c4d" d="M 172.40625 136.144531 L 135.300781 173.25 L 0.0742188 38.023438 L 37.179688 0.917969 Z M 172.40625 136.144531 " fill-opacity="1" fill-rule="nonzero"/></g></g></g></g></g></g><g clip-path="url(#020b0564ea)"><g transform="matrix(1, 0, 0, 1, 80, 312)"><g clip-path="url(#8e29a9619c)"><g clip-path="url(#797cb26473)"><path fill="#0e5c4d" d="M 0.636719 52.925781 L 0.636719 0.453125 L 273.453125 0.453125 L 273.453125 52.925781 Z M 0.636719 52.925781 " fill-opacity="1" fill-rule="nonzero"/></g></g></g></g><g clip-path="url(#4171de7d9e)"><g transform="matrix(1, 0, 0, 1, 80, 313)"><g clip-path="url(#87d70cb65f)"><g clip-path="url(#19ed58c7cc)"><path fill="#0e5c4d" d="M 0.757812 0.0742188 L 53.230469 0.0742188 L 53.230469 172.457031 L 0.757812 172.457031 Z M 0.757812 0.0742188 " fill-opacity="1" fill-rule="nonzero"/></g></g></g></g><g clip-path="url(#07d2dc112e)"><g transform="matrix(1, 0, 0, 1, 639, 105)"><g clip-path="url(#3609619146)"><g clip-path="url(#00e0252e92)"><path fill="#d4af37" d="M 0.824219 380.484375 L 0.824219 0.78125 L 54.796875 0.78125 L 54.796875 380.484375 Z M 0.824219 380.484375 " fill-opacity="1" fill-rule="nonzero"/></g></g></g></g><g clip-path="url(#41ce504182)"><g clip-path="url(#996fc62c66)"><g transform="matrix(1, 0, 0, 1, 594, 413)"><g clip-path="url(#7fbe2d51e8)"><g clip-path="url(#63ef17537c)"><g clip-path="url(#bb53d1bf45)"><path fill="#d4af37" d="M 0.851562 0.523438 L 144.773438 0.523438 L 144.773438 144.449219 L 0.851562 144.449219 Z M 0.851562 0.523438 " fill-opacity="1" fill-rule="nonzero"/></g></g></g></g></g></g><g clip-path="url(#39c99057fc)"><g clip-path="url(#c9655a6660)"><g transform="matrix(1, 0, 0, 1, 595, 0)"><g clip-path="url(#6b3ddf32f7)"><g clip-path="url(#46ec4065d5)"><g clip-path="url(#be7649db92)"><path fill="#d4af37" d="M 0.234375 0 L 144.15625 0 L 144.15625 143.925781 L 0.234375 143.925781 Z M 0.234375 0 " fill-opacity="1" fill-rule="nonzero"/></g></g></g></g></g></g><g fill="#0e5c4d" fill-opacity="1"><g transform="translate(80.978886, 820.03964)"><g><path d="M 86.09375 3.296875 C 70.875 3.296875 56.15625 1.234375 41.9375 -2.890625 C 27.726562 -7.015625 16.316406 -12.378906 7.703125 -18.984375 L 22.828125 -52.546875 C 31.078125 -46.492188 40.882812 -41.628906 52.25 -37.953125 C 63.625 -34.285156 75 -32.453125 86.375 -32.453125 C 99.03125 -32.453125 108.382812 -34.332031 114.4375 -38.09375 C 120.488281 -41.851562 123.515625 -46.851562 123.515625 -53.09375 C 123.515625 -57.675781 121.722656 -61.476562 118.140625 -64.5 C 114.566406 -67.53125 109.984375 -69.960938 104.390625 -71.796875 C 98.796875 -73.628906 91.234375 -75.644531 81.703125 -77.84375 C 67.023438 -81.332031 55.007812 -84.816406 45.65625 -88.296875 C 36.3125 -91.785156 28.289062 -97.378906 21.59375 -105.078125 C 14.894531 -112.785156 11.546875 -123.054688 11.546875 -135.890625 C 11.546875 -147.078125 14.570312 -157.207031 20.625 -166.28125 C 26.675781 -175.363281 35.800781 -182.5625 48 -187.875 C 60.195312 -193.195312 75.097656 -195.859375 92.703125 -195.859375 C 104.984375 -195.859375 116.992188 -194.390625 128.734375 -191.453125 C 140.472656 -188.515625 150.742188 -184.296875 159.546875 -178.796875 L 145.796875 -144.96875 C 128.003906 -155.050781 110.210938 -160.09375 92.421875 -160.09375 C 79.953125 -160.09375 70.738281 -158.070312 64.78125 -154.03125 C 58.820312 -150 55.84375 -144.6875 55.84375 -138.09375 C 55.84375 -131.488281 59.28125 -126.582031 66.15625 -123.375 C 73.03125 -120.164062 83.53125 -117 97.65625 -113.875 C 112.320312 -110.394531 124.332031 -106.910156 133.6875 -103.421875 C 143.039062 -99.941406 151.0625 -94.441406 157.75 -86.921875 C 164.445312 -79.398438 167.796875 -69.222656 167.796875 -56.390625 C 167.796875 -45.390625 164.722656 -35.347656 158.578125 -26.265625 C 152.441406 -17.191406 143.226562 -9.992188 130.9375 -4.671875 C 118.644531 0.640625 103.695312 3.296875 86.09375 3.296875 Z M 86.09375 3.296875 "/></g></g></g><g fill="#0e5c4d" fill-opacity="1"><g transform="translate(256.482996, 820.03964)"><g><path d="M 149.640625 -41.265625 L 60.234375 -41.265625 L 43.1875 0 L -2.46875 0 L 83.34375 -192.546875 L 127.359375 -192.546875 L 213.453125 0 L 166.703125 0 Z M 135.609375 -75.09375 L 105.078125 -148.8125 L 74.546875 -75.09375 Z M 135.609375 -75.09375 "/></g></g></g><g fill="#0e5c4d" fill-opacity="1"><g transform="translate(467.197988, 820.03964)"><g><path d="M 67.390625 -156.796875 L 67.390625 -105.90625 L 156.515625 -105.90625 L 156.515625 -70.140625 L 67.390625 -70.140625 L 67.390625 0 L 22.828125 0 L 22.828125 -192.546875 L 168.34375 -192.546875 L 168.34375 -156.796875 Z M 67.390625 -156.796875 "/></g></g></g><g fill="#0e5c4d" fill-opacity="1"><g transform="translate(642.97719, 820.03964)"><g><path d="M 313.859375 -192.546875 L 250.875 0 L 203 0 L 160.640625 -130.390625 L 116.90625 0 L 69.3125 0 L 6.046875 -192.546875 L 52.265625 -192.546875 L 95.734375 -57.21875 L 141.109375 -192.546875 L 182.375 -192.546875 L 226.390625 -56.109375 L 271.234375 -192.546875 Z M 313.859375 -192.546875 "/></g></g></g><g fill="#d4af37" fill-opacity="1"><g transform="translate(952.450326, 820.03964)"><g><path d="M 149.640625 -41.265625 L 60.234375 -41.265625 L 43.1875 0 L -2.46875 0 L 83.34375 -192.546875 L 127.359375 -192.546875 L 213.453125 0 L 166.703125 0 Z M 135.609375 -75.09375 L 105.078125 -148.8125 L 74.546875 -75.09375 Z M 135.609375 -75.09375 "/></g></g></g><g fill="#d4af37" fill-opacity="1"><g transform="translate(1163.165296, 820.03964)"><g><path d="M 22.828125 -192.546875 L 67.390625 -192.546875 L 67.390625 0 L 22.828125 0 Z M 22.828125 -192.546875 "/></g></g></g></svg>